<svg version="1" xmlns="http://www.w3.org/2000/svg" width="453.333" height="453.333" viewBox="0 0 340.000000 340.000000"><path d="M90 95.1c-22.4 3.3-39.3 20.1-45.7 45.5-2.6 10.2-2.5 41.1.1 50.9 4.2 15.7 11.8 27.7 22.2 35.1 9.7 6.9 17.7 9.6 30.4 10.2 33.8 1.5 55.7-19.2 60.1-56.8 1.4-12.1.6-28.8-1.7-39.4-7.2-32.2-33.2-50.3-65.4-45.5zm22.5 23.3c5.2 2.4 11.2 8.3 14 13.6 3.8 7.3 5.5 17.8 5.5 33.4 0 23.4-3.6 35.5-12.8 43.6-13 11.5-34.2 8.5-43.5-6.2-4.8-7.5-6.5-13.5-7.8-26.3-1.8-18.6 1-37.1 7.1-47.1 2.9-4.6 10.2-10.9 14.2-12.1 1.8-.6 6.7-1.1 10.8-1.2 5.9-.1 8.6.4 12.5 2.3zM180 165.5V235h26v-61h60v61h25V96h-25v57h-60V96h-26v69.5z"/></svg>