<?xml version="1.0" encoding="UTF-8"?>
<svg id="Layer_1" data-name="Layer 1" xmlns="http://www.w3.org/2000/svg" xmlns:xlink="http://www.w3.org/1999/xlink" viewBox="0 0 2556.66 398.3">
  <defs>
    <style>
      .cls-1 {
        fill: #9a73b8;
      }

      .cls-1, .cls-2, .cls-3, .cls-4 {
        stroke-width: 0px;
      }

      .cls-2 {
        fill: url(#linear-gradient);
      }

      .cls-3 {
        fill: #000;
      }

      .cls-4 {
        fill: #fff;
      }
    </style>
    <linearGradient id="linear-gradient" x1="267.31" y1="386.79" x2="131.14" y2="12.67" gradientUnits="userSpaceOnUse">
      <stop offset="0" stop-color="#9a73b8"/>
      <stop offset=".28" stop-color="#9c76b9"/>
      <stop offset=".54" stop-color="#a481bf"/>
      <stop offset=".79" stop-color="#b194c8"/>
      <stop offset="1" stop-color="#c2abd4"/>
    </linearGradient>
  </defs>
  <g>
    <g>
      <g>
        <path class="cls-4" d="M688.38,259.48c0,38.73-23.85,80.33-79.65,80.33h-107.9V58.87h100.2c45.15,0,74.14,30.17,74.14,72.58,0,20.8-7.34,48.93-34.87,58.31,32.3,6.12,48.08,37.92,48.08,69.73ZM597.69,109.88h-45.84v59.11h45.84c15.51,0,25.02-11.35,25.02-29.75,0-16.44-7.75-29.36-25.02-29.36ZM601.11,288.79c22.87,0,34.12-16.41,34.12-34.39,0-16.81-10.2-34.39-33.42-34.39h-49.96v68.78h49.26Z"/>
        <path class="cls-4" d="M764.91,288.79h95.79v51.01h-146.81V58.87h51.02v229.92Z"/>
        <path class="cls-4" d="M1075.96,339.8l-22.71-67.28h-90.05l-22.68,67.28h-54.32l94.32-280.94h55.06l93.96,280.94h-53.59ZM979.59,223.19h57.09l-28.63-85.02-28.47,85.02Z"/>
        <path class="cls-4" d="M1129.54,199.13c0-79.1,56.89-145.16,128.46-145.16,42.94,0,81.16,22.08,103.91,57.56l-39.68,32.15c-14.31-22.43-35.6-36.29-62.39-36.29-45.88,0-79.28,41.59-79.28,91.74s33.03,92.15,78.91,92.15c27.16,0,47.83-14.65,62.14-37.08l39.52,32.19c-22.75,35.47-60.19,58.31-103.14,58.31-71.57,0-128.46-65.65-128.46-145.56Z"/>
        <path class="cls-4" d="M1570.39,339.8h-62.15l-70.81-112.32v112.32h-51.02V58.87h51.02v111.93l70.47-111.93h61.29l-87.72,139.45,88.92,141.49Z"/>
      </g>
      <path class="cls-1" d="M1718.24,56.31h-98.01v286.06h98.01c69.02,0,115.39-57.23,115.39-142.41s-46.38-143.64-115.39-143.64ZM1647.6,84.75h70.64c53.47,0,88.01,45.22,88.01,115.2s-34.54,113.97-88.01,113.97h-70.64V84.75Z"/>
      <path class="cls-1" d="M2028.57,245.97c0,49.78-38.63,73.95-71.02,73.95s-71.02-24.17-71.02-73.95V56.31h-27.38v189.66c0,58.71,44.82,101.32,98.4,101.32s98.4-42.61,98.4-101.32V56.31h-27.37v189.66Z"/>
      <path class="cls-1" d="M2210.89,79.82c26.9,0,53.04,12.39,71.74,34l1.03,1.19,19.49-18.89-.88-1.06c-23.07-27.76-56.37-43.68-91.38-43.68-71.38,0-129.45,66.65-129.45,148.57s58.07,147.34,129.45,147.34c34.87,0,68.18-15.77,91.38-43.26l.88-1.05-19.48-19.34-1.04,1.2c-18.98,21.92-44.46,34-71.74,34-56.28,0-102.07-53.34-102.07-118.9s45.79-120.13,102.07-120.13Z"/>
      <polygon class="cls-1" points="2377.53 202.73 2482.82 56.31 2448.84 56.31 2356.03 185.24 2356.03 56.31 2328.66 56.31 2328.66 342.36 2356.01 342.02 2356.01 218.04 2445.47 342.36 2477.87 342.36 2377.53 202.73"/>
    </g>
    <g>
      <path class="cls-2" d="M310.04,34.1C156.44-67.94-40.02,74.95,7.13,252.32c56.89,195.42,329.68,194.35,385.02-1.56l.23-.86c21.79-80.14-13.34-170.15-82.33-215.8ZM348.1,188.53c-4.57,1.37-9.3,2.13-14.09,2.55-13.8,1.21-27.67.94-41.51.61-6.93-.17-13.86-.36-20.79-.39-5.94-.03-12.72-.81-18.3,1.59-3.21,1.38-5.9,3.87-7.63,6.9-4.52,7.91-.91,15.16,2.63,22.41,9.21,18.88,18.6,38.21,27.3,57.54,4.4,9.78,8.67,19.63,12.73,29.56,6.19,15.14,12.28,29.45,12.87,46.06-29.27,19.26-64.25,30.5-101.83,30.5-81.62,0-151.07-52.92-175.96-126.24,12.27-2.62,24.64-4.93,37.53-5.31,24.59-.73,49.19,2.04,73.24,7.05,5.13,1.07,10.86,3.48,15.27-.83,1.55-1.52,2.27-3.62,2.2-5.76-.04-1.03-.28-2-.62-2.91-.7-1.51-1.69-2.8-2.64-4.15-1.6-2.28-3.21-4.56-4.81-6.84-2.06-2.93-4.12-5.86-6.18-8.8-2.02-2.87-4.04-5.75-6.07-8.62-1.46-2.08-2.93-4.15-4.4-6.22-4.1-5.88-7.31-12.17-9.66-18.69-2.58-6.22-4.48-12.82-5.57-19.76-.69-4.42-1.04-8.81-1.05-13.14-.16-41.92,30.29-78.82,72.98-85.51,4.93-.77,9.83-1.11,14.65-1.04,5.79.08,11.48.75,17,1.95,4.6,1,9.08,2.37,13.41,4.09,15.47,6.12,29,16.78,38.52,30.42,3.61,5.17,7.29,10.34,11.73,14.83,11.83,11.96,26.85,20.4,41.81,27.8,8.76,4.33,17.78,8.16,26.7,11.9,3.55,1.49,7.69,4.85,8.33,8.96.76,4.88-3.75,8.07-7.8,9.49Z"/>
      <path class="cls-3" d="M347.57,170.08c-8.93-3.74-17.94-7.57-26.7-11.9-14.96-7.4-29.98-15.84-41.81-27.8-4.45-4.5-8.12-9.67-11.73-14.83-9.52-13.64-23.05-24.29-38.52-30.42-4.33-1.71-8.81-3.09-13.41-4.09-5.52-1.2-11.21-1.87-17-1.95-4.83-.07-9.72.27-14.65,1.04-42.69,6.69-73.14,43.59-72.98,85.51.02,4.34.36,8.73,1.05,13.14,1.09,6.94,2.99,13.55,5.57,19.76,2.36,6.52,5.56,12.81,9.66,18.69,1.47,2.07,2.93,4.15,4.4,6.22,2.02,2.87,4.05,5.74,6.07,8.62,2.06,2.93,4.12,5.86,6.18,8.8,1.6,2.28,3.21,4.56,4.81,6.84.95,1.36,1.95,2.64,2.64,4.15.34.91.59,1.88.62,2.91.08,2.15-.64,4.25-2.2,5.76-4.42,4.3-10.14,1.89-15.27.83-24.05-5.01-48.66-7.79-73.24-7.05-12.89.38-25.25,2.69-37.53,5.31,24.89,73.31,94.34,126.24,175.96,126.24,37.58,0,72.56-11.25,101.83-30.5-.59-16.61-6.68-30.92-12.87-46.06-4.06-9.93-8.33-19.78-12.73-29.56-8.7-19.33-18.08-38.67-27.3-57.54-3.54-7.25-7.15-14.5-2.63-22.41,1.73-3.03,4.42-5.52,7.63-6.9,5.59-2.41,12.36-1.62,18.3-1.59,6.93.03,13.86.22,20.79.39,13.83.34,27.71.6,41.51-.61,4.78-.42,9.51-1.19,14.09-2.55,4.05-1.42,8.55-4.61,7.8-9.49-.64-4.1-4.78-7.47-8.33-8.96Z"/>
    </g>
  </g>
  <path class="cls-1" d="M2556.66,85.92c0,16.31-12.96,29.52-29.27,29.52s-29.19-13.21-29.19-29.52,12.88-29.61,29.19-29.61,29.27,13.3,29.27,29.61ZM2551.65,85.92c0-13.55-10.71-24.59-24.26-24.59s-24.17,11.04-24.17,24.59,10.62,24.42,24.17,24.42,24.26-10.87,24.26-24.42ZM2531.91,90.18l7.44,10.62h-6.02l-7.28-10.2h-3.01v10.2h-5.35v-29.02h11.21c6.44,0,9.45,4.35,9.45,9.2,0,5.19-1.92,8.11-6.44,9.2ZM2523.04,76.8v9.03h5.6c3.18,0,4.52-2.43,4.52-4.52s-1.34-4.52-4.52-4.52h-5.6Z"/>
</svg>