<?xml version="1.0" encoding="UTF-8"?>
<svg id="Layer_1" data-name="Layer 1" xmlns="http://www.w3.org/2000/svg" xmlns:xlink="http://www.w3.org/1999/xlink" viewBox="0 0 2556.66 398.67">
  <defs>
    <style>
      .cls-1 {
        fill: #9a73b8;
      }

      .cls-1, .cls-2, .cls-3 {
        stroke-width: 0px;
      }

      .cls-2 {
        fill: url(#linear-gradient);
      }

      .cls-3 {
        fill: #000;
      }
    </style>
    <linearGradient id="linear-gradient" x1="267.59" y1="386.64" x2="131.21" y2="11.94" gradientUnits="userSpaceOnUse">
      <stop offset="0" stop-color="#9a73b8"/>
      <stop offset=".28" stop-color="#9c76b9"/>
      <stop offset=".54" stop-color="#a481bf"/>
      <stop offset=".79" stop-color="#b194c8"/>
      <stop offset="1" stop-color="#c2abd4"/>
    </linearGradient>
  </defs>
  <g>
    <g>
      <path class="cls-3" d="M688.25,259.48c0,38.73-23.85,80.33-79.65,80.33h-107.9V58.87h100.2c45.15,0,74.14,30.17,74.14,72.58,0,20.8-7.34,48.93-34.87,58.31,32.3,6.12,48.08,37.92,48.08,69.73ZM597.56,109.88h-45.84v59.11h45.84c15.51,0,25.02-11.35,25.02-29.75,0-16.44-7.75-29.36-25.02-29.36ZM600.98,288.79c22.87,0,34.12-16.41,34.12-34.39,0-16.81-10.2-34.39-33.42-34.39h-49.96v68.78h49.26Z"/>
      <path class="cls-3" d="M764.78,288.79h95.79v51.01h-146.81V58.87h51.02v229.92Z"/>
      <path class="cls-3" d="M1075.83,339.8l-22.71-67.28h-90.05l-22.68,67.28h-54.32l94.32-280.94h55.06l93.96,280.94h-53.59ZM979.46,223.19h57.09l-28.63-85.02-28.47,85.02Z"/>
      <path class="cls-3" d="M1129.41,199.13c0-79.1,56.89-145.16,128.46-145.16,42.94,0,81.16,22.08,103.91,57.56l-39.68,32.15c-14.31-22.43-35.6-36.29-62.39-36.29-45.88,0-79.28,41.59-79.28,91.74s33.03,92.15,78.91,92.15c27.16,0,47.83-14.65,62.14-37.08l39.52,32.19c-22.75,35.47-60.19,58.31-103.14,58.31-71.57,0-128.46-65.65-128.46-145.56Z"/>
      <path class="cls-3" d="M1570.27,339.8h-62.15l-70.81-112.32v112.32h-51.02V58.87h51.02v111.93l70.47-111.93h61.29l-87.72,139.45,88.92,141.49Z"/>
    </g>
    <path class="cls-1" d="M1718.11,56.31h-98.01v286.06h98.01c69.02,0,115.39-57.23,115.39-142.41s-46.38-143.64-115.39-143.64ZM1647.47,84.75h70.64c53.47,0,88.01,45.22,88.01,115.2s-34.54,113.97-88.01,113.97h-70.64V84.75Z"/>
    <path class="cls-1" d="M2028.44,245.97c0,49.78-38.63,73.95-71.02,73.95s-71.02-24.17-71.02-73.95V56.31h-27.38v189.66c0,58.71,44.82,101.32,98.4,101.32s98.4-42.61,98.4-101.32V56.31h-27.37v189.66Z"/>
    <path class="cls-1" d="M2210.76,79.82c26.9,0,53.04,12.39,71.74,34l1.03,1.19,19.49-18.89-.88-1.06c-23.07-27.76-56.37-43.68-91.38-43.68-71.38,0-129.45,66.65-129.45,148.57s58.07,147.34,129.45,147.34c34.87,0,68.18-15.77,91.38-43.26l.88-1.05-19.48-19.34-1.04,1.2c-18.98,21.92-44.46,34-71.74,34-56.28,0-102.07-53.34-102.07-118.9s45.79-120.13,102.07-120.13Z"/>
    <polygon class="cls-1" points="2377.4 202.73 2482.69 56.31 2448.71 56.31 2355.9 185.24 2355.9 56.31 2328.53 56.31 2328.53 342.36 2355.88 342.36 2355.88 218.04 2445.34 342.36 2477.74 342.36 2377.4 202.73"/>
  </g>
  <g>
    <path class="cls-2" d="M398.67,199.31C398.67,89.24,309.43,0,199.34,0S0,89.24,0,199.31c0,21.9,3.58,42.96,10.11,62.67,4.41-.95,9.01-2.03,13.43-2.97,0,0,0,0,0,0,.2-.04.4-.08.6-.12,2.41-.51,4.82-1,7.24-1.48.72-.14,1.44-.28,2.16-.42,2.77-.52,5.55-1.02,8.34-1.45.25-.04.51-.07.77-.11,2.51-.38,5.03-.69,7.57-.96.76-.08,1.51-.16,2.27-.23,2.8-.26,5.62-.46,8.47-.55.03,0,.06,0,.09,0,3.23-.1,6.46-.12,9.69-.1,1.09,0,2.18.05,3.26.07,2.14.04,4.28.08,6.41.17,1.3.05,2.6.14,3.9.21,1.92.11,3.83.21,5.75.36,1.4.1,2.8.23,4.2.36,1.81.16,3.62.33,5.43.52,1.45.15,2.9.33,4.35.5,1.75.21,3.51.43,5.26.67,1.47.2,2.93.41,4.4.63,1.73.26,3.46.53,5.19.82,1.47.24,2.95.49,4.42.75,1.7.3,3.4.62,5.1.95,1.48.28,2.96.57,4.43.87.48.1.96.18,1.44.28.5.11,1.02.23,1.53.35,1.68.36,3.36.7,5.04,1.08,1.59.24,3.16.28,4.66-.07.41-.09.81-.24,1.22-.39.09-.04.18-.08.27-.12.38-.17.77-.35,1.14-.59.48-.31.96-.64,1.42-1.09,1.55-1.51,2.27-3.61,2.19-5.76-.04-1.03-.28-1.99-.62-2.91-.7-1.51-1.69-2.8-2.64-4.15-1.6-2.28-3.21-4.56-4.81-6.84-2.06-2.93-4.12-5.86-6.18-8.79-2.02-2.87-4.04-5.74-6.07-8.61-1.46-2.08-2.93-4.15-4.39-6.22-4.1-5.88-7.3-12.16-9.66-18.68-2.58-6.21-4.48-12.82-5.57-19.76-.69-4.41-1.04-8.8-1.05-13.14-.16-41.9,30.28-78.79,72.96-85.47,4.93-.77,9.82-1.11,14.65-1.04,0,0,0,0,0,0,0,0,0,0,0,0,5.79.08,11.48.75,16.99,1.95,4.6,1,9.08,2.37,13.4,4.08,5.12,1.78,9.99,4.22,14.47,7.37.1.07.2.13.3.2.2.13.4.25.59.39.17.12.34.24.51.36.18.12.36.24.54.36.03.02.05.04.08.06.28.19.56.38.84.57.63.44,1.24.91,1.87,1.36.44.32.89.63,1.32.96.28.21.55.45.83.66.09.07.18.15.28.22,6.44,5.1,12.14,11.12,16.86,17.88,3.61,5.17,7.28,10.33,11.73,14.83,11.82,11.95,26.84,20.39,41.8,27.79,8.76,4.33,17.77,8.16,26.69,11.89.06.03.13.06.19.09.62.28,1.2.58,1.75.9.19.11.38.22.57.34.26.16.5.34.75.51.54.39,1.06.82,1.56,1.27.85.75,1.6,1.53,2.15,2.36.28.42.52.86.72,1.29.05.12.05.24.1.36.25.59.45,1.2.55,1.83.01.09,0,.17,0,.26,0,.07.05.14.06.21.03.37.01.74-.02,1.11,0,.07,0,.15,0,.22,0,0,0,0,0,.01-.05.43-.14.86-.28,1.29-.01.03-.04.07-.05.1-.19.55-.46,1.09-.8,1.62-.17.26-.39.49-.59.73-.19.24-.4.47-.62.7-.29.29-.6.56-.93.82-.27.22-.58.42-.89.62-.45.29-.9.56-1.38.81-.66.34-1.35.66-2.13.95-.05.02-.09.04-.14.06-4.57,1.37-9.3,2.13-14.08,2.55-.15.01-.3.01-.45.03-13.65,1.17-27.38.91-41.06.58-6.93-.17-13.85-.36-20.78-.39-.42,0-.84-.01-1.27-.02-2.14,0-4.12.02-5.84.05-1.01.01-1.94.03-2.76.05-1.18.03-2.14.06-2.85.1-.91.12-1.81.28-2.7.5-.34.08-.68.16-1.01.26-.44.14-.87.28-1.28.45-.81.34-1.61.7-2.34,1.15-.05.03-.11.06-.16.09-.68.42-1.33.89-1.94,1.41,0,0-.02.01-.02.02-.56.48-1.08,1-1.58,1.54-.07.08-.15.15-.22.23-.7.8-1.33,1.65-1.87,2.56-.08.14-.15.29-.23.43-.33.61-.58,1.21-.82,1.81-.19.48-.38.97-.51,1.44-1.62,5.62.34,10.94,2.84,16.22,5,10.22,26.01,53.33,34.13,72.16,4.69,10.89,16.55,39.36,17.84,46.59,1.57,6.91,2.37,14.11,2.27,21.51-.06,4.03-.39,7.99-.96,11.87,58.82-34.66,98.31-98.6,98.31-171.8Z"/>
    <path class="cls-3" d="M355.8,178.7c0-.09,0-.17,0-.26-.1-.63-.3-1.24-.55-1.83-.05-.12-.04-.24-.1-.36-.2-.44-.44-.87-.72-1.29-.54-.83-1.3-1.61-2.15-2.36-.5-.46-1.02-.89-1.56-1.27-.25-.17-.48-.35-.75-.51-.19-.12-.38-.23-.57-.34-.55-.32-1.13-.62-1.75-.9-.06-.03-.13-.06-.19-.09-8.92-3.74-17.94-7.56-26.69-11.89-14.95-7.39-29.97-15.83-41.8-27.79-4.44-4.49-8.12-9.66-11.73-14.83-4.72-6.76-10.43-12.78-16.86-17.88-.09-.07-.18-.15-.28-.22-.28-.22-.55-.45-.83-.66-.43-.33-.88-.64-1.32-.96-.62-.45-1.23-.92-1.87-1.36-.28-.19-.56-.38-.84-.57-.03-.02-.06-.04-.08-.06-.18-.12-.36-.24-.54-.36-.17-.12-.34-.24-.51-.36-.19-.14-.39-.26-.59-.39-.1-.06-.2-.13-.3-.2-4.48-3.15-9.35-5.6-14.47-7.37-4.33-1.71-8.81-3.08-13.4-4.08-5.52-1.2-11.2-1.87-16.99-1.95,0,0,0,0,0,0,0,0,0,0,0,0-4.82-.07-9.72.27-14.65,1.04-42.68,6.68-73.12,43.57-72.96,85.47.02,4.33.36,8.72,1.05,13.14,1.09,6.94,2.99,13.54,5.57,19.76,2.36,6.52,5.56,12.8,9.66,18.68,1.47,2.07,2.93,4.15,4.39,6.22,2.02,2.87,4.04,5.74,6.07,8.61,2.06,2.93,4.12,5.86,6.18,8.79,1.6,2.28,3.21,4.56,4.81,6.84.95,1.35,1.95,2.64,2.64,4.15.34.91.59,1.88.62,2.91.08,2.15-.64,4.25-2.19,5.76-.46.45-.93.78-1.42,1.09-.37.24-.75.42-1.14.59-.09.04-.18.08-.27.12-.4.16-.8.3-1.22.39-1.5.34-3.07.3-4.66.07-1.67-.38-3.36-.72-5.04-1.08-.51-.12-1.03-.25-1.53-.35-.48-.1-.96-.18-1.44-.28-1.47-.3-2.95-.58-4.43-.87-1.7-.33-3.4-.65-5.1-.95-1.47-.26-2.94-.51-4.42-.75-1.73-.29-3.46-.56-5.19-.82-1.46-.22-2.93-.43-4.4-.63-1.75-.24-3.51-.46-5.26-.67-1.45-.17-2.9-.35-4.35-.5-1.81-.19-3.62-.36-5.43-.52-1.4-.12-2.8-.25-4.2-.36-1.91-.14-3.83-.25-5.75-.36-1.3-.07-2.6-.16-3.9-.21-2.14-.09-4.28-.13-6.41-.17-1.09-.02-2.18-.06-3.26-.07-3.23-.02-6.46,0-9.69.1-.03,0-.06,0-.09,0-2.85.09-5.66.29-8.47.55-.76.07-1.52.14-2.27.23-2.54.27-5.06.58-7.57.96-.26.04-.51.07-.77.11-2.79.43-5.57.92-8.34,1.45-.72.14-1.44.28-2.16.42-2.42.47-4.83.96-7.24,1.48-.2.04-.4.08-.6.12,0,0,0,0,0,0-4.41.94-9.01,2.02-13.43,2.97-.02,0-.04,0-.06.01.48,1.45,1.01,2.88,1.52,4.32.24.67.47,1.35.71,2.02,2.14,5.82,4.56,11.5,7.22,17.05.15.32.32.64.47.96,1.22,2.5,2.48,4.98,3.8,7.42.18.34.36.67.54,1.01,4.53,8.3,9.64,16.24,15.27,23.77.01.01.02.03.03.04,1.84,2.46,3.74,4.87,5.68,7.23.14.17.28.34.42.5,6.01,7.26,12.52,14.08,19.48,20.42.11.1.22.19.33.29,2.14,1.94,4.33,3.83,6.55,5.67.3.25.61.5.91.75,2.21,1.81,4.46,3.58,6.75,5.3.16.12.31.24.47.36,4.98,3.72,10.15,7.21,15.47,10.46.32.2.65.38.97.58,2.27,1.37,4.57,2.69,6.9,3.97.51.28,1.03.56,1.54.84,2.33,1.25,4.68,2.46,7.06,3.62.36.18.72.36,1.09.54,5.6,2.69,11.35,5.12,17.22,7.28.37.14.74.26,1.12.4,2.54.92,5.1,1.79,7.69,2.6.53.17,1.05.33,1.58.49,2.67.82,5.36,1.59,8.08,2.3.28.07.56.15.83.22,6.27,1.61,12.67,2.92,19.16,3.91.05,0,.11.01.16.02,3.15.48,6.33.88,9.53,1.21.22.02.44.04.66.07,6.64.67,13.36,1.05,20.17,1.05,1.79,0,3.55-.13,5.33-.18,1.94-.05,3.88-.09,5.81-.2,2.23-.12,4.45-.31,6.67-.51,1.7-.15,3.39-.32,5.07-.52,2.23-.26,4.46-.52,6.67-.85,1.64-.24,3.26-.55,4.88-.84,3.8-.66,7.55-1.43,11.27-2.31,1.67-.39,3.34-.77,4.99-1.2,2.06-.54,4.09-1.13,6.12-1.74,1.7-.51,3.39-1.04,5.07-1.59,1.94-.63,3.87-1.27,5.78-1.96,2.07-.75,4.11-1.56,6.14-2.38,2.68-1.07,5.33-2.2,7.95-3.38,1.93-.87,3.86-1.74,5.76-2.67,1.68-.82,3.34-1.69,5-2.56,1.75-.92,3.49-1.87,5.21-2.85,1.05-.6,2.15-1.13,3.19-1.74,0-.03,0-.07.01-.1.56-3.88.9-7.84.96-11.87.11-7.4-.7-14.6-2.27-21.51-1.29-7.23-13.15-35.7-17.84-46.59-8.11-18.83-29.13-61.94-34.13-72.16-2.5-5.28-4.47-10.6-2.84-16.22.14-.48.32-.96.51-1.44.24-.6.49-1.2.82-1.81.08-.14.14-.29.23-.43.54-.91,1.17-1.76,1.87-2.56.07-.08.14-.15.22-.23.5-.54,1.02-1.06,1.58-1.54,0,0,.01-.01.02-.02.61-.52,1.26-.99,1.94-1.41.05-.03.11-.06.16-.09.74-.45,1.53-.81,2.34-1.15.42-.17.85-.31,1.28-.45.33-.1.67-.18,1.01-.26.88-.22,1.78-.38,2.7-.5.71-.04,1.67-.07,2.85-.1.82-.02,1.75-.03,2.76-.05,1.72-.02,3.7-.04,5.84-.05.42,0,.85.02,1.27.02,6.93.03,13.85.22,20.78.39,13.68.33,27.41.59,41.06-.58.15-.01.3-.01.45-.03,4.78-.42,9.51-1.19,14.08-2.55.05-.02.09-.04.14-.06.79-.28,1.47-.61,2.13-.95.47-.25.93-.52,1.38-.81.31-.2.62-.41.89-.62.33-.26.64-.53.93-.82.23-.23.43-.46.62-.7.2-.24.42-.47.59-.73.34-.52.61-1.06.8-1.62.01-.03.04-.07.05-.1.14-.42.23-.85.28-1.29,0,0,0,0,0-.01,0-.07,0-.15,0-.22.03-.37.05-.74.02-1.11,0-.07-.05-.14-.06-.21Z"/>
  </g>
  <path class="cls-1" d="M2556.66,85.92c0,16.31-12.96,29.52-29.27,29.52s-29.19-13.21-29.19-29.52,12.88-29.61,29.19-29.61,29.27,13.3,29.27,29.61ZM2551.65,85.92c0-13.55-10.71-24.59-24.26-24.59s-24.17,11.04-24.17,24.59,10.62,24.42,24.17,24.42,24.26-10.87,24.26-24.42ZM2531.91,90.18l7.44,10.62h-6.02l-7.28-10.2h-3.01v10.2h-5.35v-29.02h11.21c6.44,0,9.45,4.35,9.45,9.2,0,5.19-1.92,8.11-6.44,9.2ZM2523.04,76.8v9.03h5.6c3.18,0,4.52-2.43,4.52-4.52s-1.34-4.52-4.52-4.52h-5.6Z"/>
</svg>